<svg xmlns="http://www.w3.org/2000/svg" width="331.148" height="295.207" viewBox="177 171.396 331.148 295.207"><g data-name="Group 52"><path d="M508.148 457.366c.112 11.772-74.069 12.85-75.482 0-.112-11.77 74.069-12.85 75.482 0Z" fill="#e6e6e6" fill-rule="evenodd" data-name="Path 140"/><path d="m450.11 416.5-5.514 3.006 3.508 11.527 5.513.501 3.007-6.515-6.515-8.52Z" fill-rule="evenodd" data-name="Path 141"/><path d="M467.15 439.553v5.513l8.52-.501-.12-4.54-8.4-.472Z" fill-rule="evenodd" data-name="Path 142"/><path d="m448.104 350.342 3.007 37.59 9.523 55.13 15.035-2.005-5.011-43.603 2.004-40.095-24.558-7.017Z" fill="#041a65" fill-rule="evenodd" data-name="Path 143"/><path d="m488.199 322.276-36.085.502-4.01 27.565 24.558 11.527 6.014 22.052-30.572 32.577 12.029 15.035s17.04-23.054 29.57-36.085c12.53-13.03 6.515-52.624 6.515-52.624l-8.02-20.549Z" fill="#041a65" fill-rule="evenodd" data-name="Path 144"/><path d="M455.622 239.982a11.026 11.026 0 1 1 0 .1z" fill="#facdd0" fill-rule="evenodd" data-name="Ellipse 20"/><path d="M462.639 247.6v11.026l7.518 12.029s11.527-8.52 9.02-10.525c-2.505-2.005-3.006-17.542-3.006-17.542l-13.532 5.012Z" fill="#facdd0" fill-rule="evenodd" data-name="Path 145"/><path d="m462.639 256.621-7.518 9.022 3.007 62.647 23.555-.5 4.01-54.63-5.012-14.033-3.438-4.677-6.084 9.188-8.52-7.017Z" fill="#dce3fc" fill-rule="evenodd" data-name="Path 146"/><path d="m450.61 289.198-5.513 21.05 5.513 21.05-9.021 12.028-8.019-38.09s6.014-31.073 6.515-34.581c.502-3.509 1.504-4.01 1.504-4.01l4.01.501 5.011 22.052Z" fill="#041a65" fill-rule="evenodd" data-name="Path 147"/><path d="m490.705 297.217 3.508 6.516 1.003 11.026-2.005 12.53 7.016 11.527 7.017-31.575-7.518-40.596h-3.007l-6.014 30.572Z" fill="#041a65" fill-rule="evenodd" data-name="Path 148"/><path d="M448.104 415.998s-7.016 2.005-9.522 2.506c-2.506.501 1.504 10.023 1.504 10.023s2.505 13.031 3.007 15.537c.5 2.506 4.01 11.026 8.52 12.029 4.51 1.002 1.503-17.542 1.503-17.542s2.005-6.014 2.005-8.019c0-2.004-3.007-1.002-3.007-1.002-8.019-1.003-4.01-13.532-4.01-13.532Z" fill="#3d3c3c" fill-rule="evenodd" data-name="Path 149"/><path d="M464.643 454.59c.502 3.006-.5 3.006 7.518 4.009 8.02 1.002 6.014-5.513 6.014-5.513a42.118 42.118 0 0 0-2.004-9.022c-1.504-4.01-9.523 1.003-9.523 1.003s-2.506 6.515-2.005 9.522Z" fill="#2f2e41" fill-rule="evenodd" data-name="Path 150"/><path d="m476.184 242.938.261 4.458s3.234-7.314 3.735-14.831c.501-7.518-8.02-9.022-13.03-9.523-5.012-.5-13.533 3.007-13.533 7.017s9.022 3.007 12.53 2.005c3.508-1.003 5.012 7.517 5.012 7.517l2.005.502 3.02 2.855Z" fill="#2f2e41" fill-rule="evenodd" data-name="Path 151"/><path d="m459.68 260.17 2.959-3.549 8.52 7.017-8.52 6.014-2.959-9.481Z" fill="#dce3fc" fill-rule="evenodd" data-name="Path 152"/><path d="m480.681 259.127-3.508-4.51-6.014 9.02 7.518 5.514 2.004-10.024Z" fill="#dce3fc" fill-rule="evenodd" data-name="Path 153"/><path d="m449.107 296.215 2.004 19.045-4.01 11.527-2.505 11.026s0 10.525 10.024 11.026c10.023.502 18.543-31.574 18.543-31.574s1.504 7.016 2.506 11.026c1.003 4.01 18.043 20.047 18.043 20.047s4.01-.501 7.518-8.52-7.017-15.537-7.017-15.537l-3.007-10.525 1.002-13.03 7.017-34.08-20.8-10.776 2.256 28.818-7.517 22.553-11.277-49.868-3.759 2.757-16.038 6.515 7.017 29.57Z" fill="#041a65" fill-rule="evenodd" data-name="Path 154"/><path d="M287.782 378.972c-.991-.008-1.993-.015-2.978-.045l.03-.993a92.586 92.586 0 0 0 5.92-.003l.034.992a92.938 92.938 0 0 1-3.006.049Zm-8.948-.42a94.23 94.23 0 0 1-5.935-.753l.157-.98c1.94.309 3.915.56 5.871.745l-.093.989Zm17.923-.01-.094-.988c1.955-.188 3.93-.441 5.87-.754l.158.981c-1.96.316-3.957.572-5.934.761Zm-29.732-1.876a93.364 93.364 0 0 1-5.79-1.51l.282-.953a92.07 92.07 0 0 0 5.728 1.494l-.22.969Zm41.539-.025-.22-.968a92.305 92.305 0 0 0 5.725-1.501l.283.952a93.16 93.16 0 0 1-5.788 1.517Zm-53.009-3.365a93.224 93.224 0 0 1-5.555-2.247l.402-.907a92.591 92.591 0 0 0 5.496 2.222l-.343.932Zm64.474-.04-.343-.931a91.786 91.786 0 0 0 5.476-2.221l.403.908a92.608 92.608 0 0 1-5.536 2.245Zm-75.426-4.806a94.078 94.078 0 0 1-5.217-2.94l.515-.85c1.686 1.023 3.423 2.002 5.162 2.91l-.46.88Zm86.344-.036-.46-.88a92.428 92.428 0 0 0 5.15-2.908l.516.849a93.245 93.245 0 0 1-5.206 2.939Zm-96.578-6.171a94.26 94.26 0 0 1-4.797-3.581l.62-.777a93.009 93.009 0 0 0 4.745 3.543l-.568.815Zm106.792-.036-.57-.813a92.96 92.96 0 0 0 4.74-3.543l.62.776a94.094 94.094 0 0 1-4.79 3.58Zm-116.146-7.425a94.526 94.526 0 0 1-4.3-4.16l.712-.692a93.614 93.614 0 0 0 4.255 4.116l-.667.736Zm125.49-.035-.669-.735a93.273 93.273 0 0 0 4.253-4.118l.713.69a94.352 94.352 0 0 1-4.297 4.163Zm-133.817-8.55a94.848 94.848 0 0 1-3.735-4.672l.795-.596a93.445 93.445 0 0 0 3.696 4.623l-.756.645Zm142.14-.042-.756-.644a93.327 93.327 0 0 0 3.695-4.627l.795.594a94.333 94.333 0 0 1-3.735 4.677Zm-149.304-9.53a94.25 94.25 0 0 1-3.107-5.107l.864-.489c.965 1.707 2 3.407 3.075 5.053l-.832.543Zm156.468-.054-.832-.542a92.996 92.996 0 0 0 3.076-5.063l.865.488a93.727 93.727 0 0 1-3.11 5.117Zm-162.349-10.348a93.122 93.122 0 0 1-2.426-5.46l.92-.374a92.377 92.377 0 0 0 2.4 5.402l-.894.432Zm168.232-.077-.894-.432a92.115 92.115 0 0 0 2.401-5.418l.92.373a92.691 92.691 0 0 1-2.427 5.477ZM199.144 315.13a92.834 92.834 0 0 1-1.706-5.735l.96-.252a91.677 91.677 0 0 0 1.688 5.673l-.942.314Zm177.228-.105-.943-.312a92.127 92.127 0 0 0 1.681-5.676l.962.251a93.324 93.324 0 0 1-1.7 5.737Zm-180.267-11.462c-.38-1.949-.7-3.936-.954-5.906l.985-.127c.25 1.95.568 3.915.944 5.843l-.975.19Zm183.292-.11-.975-.187c.373-1.928.688-3.894.937-5.845l.986.126a93.815 93.815 0 0 1-.949 5.907Zm-184.821-11.75a95.228 95.228 0 0 1-.195-5.98l.993-.002c.002 1.968.067 3.959.193 5.918l-.991.064Zm186.336-.111-.992-.063c.124-1.957.187-3.948.187-5.916l-.001-.218h.993v.214c0 1.993-.063 4.005-.187 5.983Zm-185.358-11.787-.991-.061c.123-1.984.311-3.987.56-5.956l.985.124a93.1 93.1 0 0 0-.554 5.893Zm184.353-.326a93.594 93.594 0 0 0-.575-5.89l.984-.129a94.47 94.47 0 0 1 .582 5.954l-.991.065Zm-182.869-11.412-.975-.188c.375-1.949.818-3.912 1.318-5.835l.961.25a92.244 92.244 0 0 0-1.304 5.773Zm181.341-.32a92.572 92.572 0 0 0-1.325-5.77l.96-.252c.507 1.918.957 3.88 1.34 5.83l-.975.192Zm-178.362-11.131-.943-.311a92.99 92.99 0 0 1 2.063-5.627l.92.372a91.792 91.792 0 0 0-2.04 5.566Zm175.345-.31a92.52 92.52 0 0 0-2.058-5.55l.92-.375a93.122 93.122 0 0 1 2.08 5.61l-.942.315Zm-170.909-10.678-.895-.43a93.629 93.629 0 0 1 2.769-5.311l.865.487a92.48 92.48 0 0 0-2.739 5.254Zm166.444-.27a92.467 92.467 0 0 0-2.75-5.236l.864-.49a93.085 93.085 0 0 1 2.78 5.293l-.894.433Zm-160.635-10.051-.833-.542a93.992 93.992 0 0 1 3.424-4.911l.796.593a93.096 93.096 0 0 0-3.387 4.86Zm154.804-.234a92.695 92.695 0 0 0-3.398-4.844l.794-.596a93.883 93.883 0 0 1 3.435 4.896l-.831.544Zm-147.727-9.257-.756-.643a94.072 94.072 0 0 1 4.02-4.433l.713.69a93.444 93.444 0 0 0-3.977 4.386Zm140.628-.204a93.605 93.605 0 0 0-3.989-4.374l.712-.692a94.192 94.192 0 0 1 4.032 4.42l-.755.646Zm-132.403-8.306-.669-.734c1.47-1.339 3-2.646 4.549-3.885l.62.775a93.202 93.202 0 0 0-4.5 3.844Zm124.154-.18a93.359 93.359 0 0 0-4.514-3.832l.618-.778a94.323 94.323 0 0 1 4.562 3.874l-.666.736ZM234.8 209.913l-.57-.813a93.666 93.666 0 0 1 5.005-3.273l.516.848a93.355 93.355 0 0 0-4.951 3.238Zm105.654-.158a93.154 93.154 0 0 0-4.967-3.227l.514-.85a93.832 93.832 0 0 1 5.02 3.262l-.567.815Zm-95.556-5.993-.461-.88a93.523 93.523 0 0 1 5.378-2.605l.404.908a92.249 92.249 0 0 0-5.321 2.577Zm85.424-.137a92.297 92.297 0 0 0-5.343-2.565l.401-.909a93.443 93.443 0 0 1 5.4 2.593l-.458.881Zm-74.629-4.668-.345-.932a93.111 93.111 0 0 1 5.676-1.893l.284.952a92.068 92.068 0 0 0-5.615 1.873Zm63.789-.113a92.096 92.096 0 0 0-5.622-1.853l.28-.953c1.905.56 3.817 1.19 5.683 1.874l-.341.932Zm-52.45-3.267-.222-.968a93.483 93.483 0 0 1 5.871-1.148l.16.981a92.415 92.415 0 0 0-5.81 1.135Zm41.099-.072a92.295 92.295 0 0 0-5.813-1.115l.155-.98c1.963.31 3.94.69 5.876 1.126l-.218.969Zm-29.42-1.823-.097-.988a94.718 94.718 0 0 1 5.97-.389l.033.993a93.772 93.772 0 0 0-5.907.384Zm17.734-.03a93.705 93.705 0 0 0-5.907-.364l.03-.993c1.986.06 3.995.183 5.97.367l-.093.99Z" fill="#2240a7" fill-rule="evenodd" data-name="Path 155"/><path d="M284.264 171.396c12.89 0 23.34 10.45 23.34 23.34s-10.45 23.34-23.34 23.34-23.34-10.45-23.34-23.34 10.45-23.34 23.34-23.34Z" fill="#f2ba59" fill-rule="evenodd" data-name="Path 189"/><path d="M374.644 234.96c12.89 0 23.34 10.45 23.34 23.34s-10.45 23.34-23.34 23.34-23.34-10.45-23.34-23.34 10.45-23.34 23.34-23.34Z" fill="#f2ba59" fill-rule="evenodd" data-name="Path 188"/><path d="M323.308 355.796a23 23.5 0 1 1 0 .1z" fill="#f2ba59" fill-rule="evenodd" data-name="Ellipse 23"/><path d="M234.108 336.265c12.89 0 23.34 10.45 23.34 23.34s-10.45 23.34-23.34 23.34-23.34-10.45-23.34-23.34 10.45-23.34 23.34-23.34Z" fill="#f2ba59" fill-rule="evenodd" data-name="Path 190"/><path d="M200.34 234.96c12.89 0 23.34 10.45 23.34 23.34s-10.45 23.34-23.34 23.34S177 271.19 177 258.3s10.45-23.34 23.34-23.34Z" fill="#f2ba59" fill-rule="evenodd" data-name="Path 191"/><path d="M294.266 192.875h-8.141a2.791 2.791 0 0 1-2.791-2.79v-8.142a.233.233 0 0 0-.233-.233h-5.35a3.722 3.722 0 0 0-3.721 3.722v18.608a3.722 3.722 0 0 0 3.721 3.722h13.026a3.722 3.722 0 0 0 3.722-3.722v-10.932a.233.233 0 0 0-.233-.233Zm-5.35 9.304h-9.304a.93.93 0 1 1 0-1.86h9.304a.93.93 0 1 1 0 1.86Zm0-4.652h-9.304a.93.93 0 0 1 0-1.86h9.304a.93.93 0 0 1 0 1.86Z" fill="#fff" fill-rule="evenodd" data-name="Path 156"/><path d="m293.755 190.816-8.362-8.362a.116.116 0 0 0-.198.082v7.548c0 .514.416.93.93.93h7.548a.116.116 0 0 0 .082-.198Z" fill="#fff" fill-rule="evenodd" data-name="Path 157"/><path d="M349.714 351.034a1.237 1.237 0 1 0 .002 2.474 1.237 1.237 0 0 0-.002-2.474Z" fill="#fff" fill-rule="evenodd" data-name="Path 158"/><path d="M356.6 346.088v-.004a.945.945 0 0 0-.7-.71c-1.382-.336-3.554.023-5.962.987a19.172 19.172 0 0 0-6.237 3.95 14.87 14.87 0 0 0-1.37 1.567 6.074 6.074 0 0 0-2.714.436c-2.676 1.178-3.44 4.192-3.643 5.43a1.158 1.158 0 0 0 1.26 1.343h.006l2.98-.325.012.104c.038.364.2.703.458.96l1.455 1.456c.258.26.597.421.96.46l.1.01-.325 2.977v.006a1.158 1.158 0 0 0 1.333 1.262c1.244-.2 4.257-.955 5.431-3.645.348-.857.498-1.781.438-2.704a14.588 14.588 0 0 0 1.573-1.37 19.032 19.032 0 0 0 3.954-6.187c.959-2.38 1.32-4.57.991-6.003Zm-4.961 8.105a2.724 2.724 0 1 1-.002-3.852l.002.002a2.702 2.702 0 0 1 .029 3.82Z" fill="#fff" fill-rule="evenodd" data-name="Path 159"/><path d="M341.978 361.677a.742.742 0 0 0-.51.124c-.296.202-.593.403-.894.598a.692.692 0 0 1-.973-.927l.563-.973a.741.741 0 0 0-.702-1.155 2.839 2.839 0 0 0-1.652.81c-.17.17-.685.686-.963 2.653a16.595 16.595 0 0 0-.149 1.704c-.01.41.313.75.722.76h.038c.57-.02 1.14-.07 1.706-.148 1.968-.278 2.484-.794 2.654-.964.447-.445.731-1.029.806-1.656a.741.741 0 0 0-.646-.826Z" fill="#fff" fill-rule="evenodd" data-name="Path 160"/><path d="M226.076 372.288h-1.691c-.7 0-1.268-.568-1.268-1.268v-7.61c0-.7.567-1.269 1.268-1.269h1.69c.701 0 1.27.568 1.27 1.269v7.61c0 .7-.569 1.268-1.27 1.268Z" fill="#fff" fill-rule="evenodd" data-name="Path 161"/><path d="M237.913 372.288h-1.69c-.701 0-1.27-.568-1.27-1.268v-12.683c0-.7.569-1.269 1.27-1.269h1.69c.7 0 1.268.568 1.268 1.269v12.683c0 .7-.567 1.268-1.268 1.268Z" fill="#fff" fill-rule="evenodd" data-name="Path 162"/><path d="M243.832 372.288h-1.691c-.7 0-1.269-.568-1.269-1.268v-18.602c0-.7.568-1.268 1.269-1.268h1.69c.701 0 1.269.568 1.269 1.268v18.602c0 .7-.568 1.268-1.268 1.268Z" fill="#fff" fill-rule="evenodd" data-name="Path 163"/><path d="M231.994 372.288h-1.69c-.701 0-1.269-.568-1.269-1.268v-22.83c0-.7.568-1.268 1.268-1.268h1.691c.7 0 1.269.568 1.269 1.268v22.83c0 .7-.568 1.268-1.269 1.268Z" fill="#fff" fill-rule="evenodd" data-name="Path 164"/><path d="m375.762 257.689-1.208-1.209a1.48 1.48 0 0 0-2.089-.006l-8.4 7.752a1.569 1.569 0 0 0-.525 1.067c-.018.413.136.814.426 1.108l1.805 1.825.003.003c.279.278.656.435 1.05.436h.055c.411-.023.797-.21 1.072-.517l7.806-8.361a1.48 1.48 0 0 0 .009-2.094Z" fill="#fff" fill-rule="evenodd" data-name="Path 165"/><path d="m385.472 255.246-.015-.014-1.585-1.57a1.012 1.012 0 0 0-1.299-.098c0-.02.003-.04.004-.057a1.692 1.692 0 0 0-.24-1.167c-.35-.47-.734-.915-1.148-1.33l-.004-.003a12.526 12.526 0 0 0-4.013-2.589 6.457 6.457 0 0 0-2.456-.483 4.68 4.68 0 0 0-2.996 1.05c-.24.23-.46.48-.656.75a.74.74 0 0 0 .863 1.126c.13-.048.262-.089.397-.122.28-.059.568-.077.854-.053a3.59 3.59 0 0 1 1.651.606c.559.47.87 1.171.845 1.901a4.937 4.937 0 0 1-.925 1.596.74.74 0 0 0 .067.971l1.592 1.593a.74.74 0 0 0 1.018.028c.45-.402 1.136-1.008 1.376-1.156.204-.138.436-.23.68-.269a.887.887 0 0 1 .522.11.057.057 0 0 1-.014.044l-.084.08-.014.013a.996.996 0 0 0-.003 1.409l.005.004 1.585 1.57a.993.993 0 0 0 .707.289c.264 0 .517-.103.705-.287l2.568-2.537a1.012 1.012 0 0 0 .013-1.405Z" fill="#fff" fill-rule="evenodd" data-name="Path 166"/><path d="M204.045 256.91a.926.926 0 0 1-.655-1.581l2.125-2.124-2.125-2.124a.926.926 0 0 1 1.31-1.31l2.78 2.779a.926.926 0 0 1 0 1.31l-2.78 2.78a.924.924 0 0 1-.655.27Z" fill="#fff" fill-rule="evenodd" data-name="Path 167"/><path d="M189.223 259.69a.926.926 0 0 1-.927-.927v-.927a5.586 5.586 0 0 1 5.556-5.558H205.9a.926.926 0 0 1 0 1.853h-12.044a3.728 3.728 0 0 0-3.706 3.708v.924a.926.926 0 0 1-.926.926Z" fill="#fff" fill-rule="evenodd" data-name="Path 168"/><path d="M196.634 267.101a.924.924 0 0 1-.655-.271l-2.779-2.78a.926.926 0 0 1 0-1.31l2.78-2.78a.926.926 0 0 1 1.31 1.311l-2.125 2.124 2.124 2.125a.926.926 0 0 1-.655 1.581Z" fill="#fff" fill-rule="evenodd" data-name="Path 169"/><path d="M194.781 264.322a.927.927 0 0 1 0-1.853h12.044a3.728 3.728 0 0 0 3.706-3.709v-.923a.926.926 0 1 1 1.853 0v.926a5.586 5.586 0 0 1-5.556 5.559H194.78Z" fill="#fff" fill-rule="evenodd" data-name="Path 170"/></g></svg>